# xmcd
#
# Track frame offsets: 
#        150
#        9679
#        19580
#        32446
#        47116
#        56567
#        66796
#        76676
#        90984
#        103080
#        114760
#        127172
#        137662
#        150280
#        161541
#        176865
#        190371
#        200250
#        210571
#        220533
#
# Disc length: 3082 seconds
#
# Revision: 1
# Processed by: cddbd v1.5.2PL0 Copyright (c) Steve Scherf et al.
# Submitted via: ExactAudioCopyFreeDBPlugin 1.0
#
DISCID=fe0c0814
DTITLE=Various Artist - Train Songs:  200 Great Songs About Heroes, H
DTITLE=obos and Freight Trains [Membran Music Documents]
DYEAR=2011
DGENRE=Trains
TTITLE0=Lonnie Donegan Skiffle Group - John Henry
TTITLE1=Laurie London - The Gospel Train
TTITLE2=Johnny Cash - Folsom Prison Blues
TTITLE3=Sam McGee - Railroad Blues
TTITLE4=Jim Reeves - Waiting for a Train
TTITLE5=Bill Haley and The Comets - Chattanooga Choo Choo
TTITLE6=Lonnie Donegan Skiffle Group - Worried Man Blues
TTITLE7=Louvin Brothers - Put Me on the Train to Carolina
TTITLE8=Freddie Bell and The Bell Boys - Take the First Train Out of Tow
TTITLE8=n
TTITLE9=Hank Snow - The Last Ride
TTITLE10=Louis Jordan - Choo Choo Ch' Boogie
TTITLE11=Johnny Horton - The First Train Headin' South
TTITLE12=Hank Snow - I'm Moving On
TTITLE13=Johnny Duncan and His Blue Grass Boys - Last Train to San Ferna
TTITLE13=ndo
TTITLE14=The Four Lovers - Night Train
TTITLE15=Tennessee Ernie Ford - Streamlined Cannonball
TTITLE16=Lee Emerson - Catch That Train
TTITLE17=Johnn Horton - Coal Smoke, Valve Oil and Steam
TTITLE18=Johnny Teller - Lonesome Train
TTITLE19=Neil Sedaka - One Way Ticket
EXTD=YEAR: 2011
EXTT0=
EXTT1=
EXTT2=
EXTT3=
EXTT4=
EXTT5=
EXTT6=
EXTT7=
EXTT8=
EXTT9=
EXTT10=
EXTT11=
EXTT12=
EXTT13=
EXTT14=
EXTT15=
EXTT16=
EXTT17=
EXTT18=
EXTT19=
PLAYORDER=
